<?xml version="1.0" encoding="utf-8"?>
<!-- Generator: Adobe Illustrator 24.3.0, SVG Export Plug-In . SVG Version: 6.00 Build 0)  -->
<svg version="1.1" id="Layer_1" xmlns="http://www.w3.org/2000/svg" xmlns:xlink="http://www.w3.org/1999/xlink" x="0px" y="0px"
	 viewBox="0 0 80 80" enable-background="new 0 0 80 80" xml:space="preserve">
<g>
	<path fill="#1A171B" d="M60.849,38.319H59.94l-1.753-6.096c-0.111-0.386-0.513-0.61-0.899-0.497
		c-0.387,0.11-0.609,0.514-0.499,0.899l1.638,5.693h-8.395c-0.936,0-1.697-0.762-1.697-1.697V26.334
		c0-0.401-0.326-0.728-0.728-0.728c-0.401,0-0.727,0.326-0.727,0.728v10.288c0,1.737,1.413,3.151,3.151,3.151h10.816
		c0.936,0,1.696,0.762,1.696,1.697v2.812h-5.796c-0.255,0-0.491,0.133-0.623,0.353c-0.132,0.218-0.14,0.489-0.021,0.716l2.596,4.896
		c0.127,0.238,0.374,0.387,0.644,0.387h3.2v2.892c0,0.937-0.761,1.697-1.696,1.697h-0.153c-0.402,0-0.728,0.325-0.728,0.727
		c0,0.401,0.325,0.727,0.728,0.727h0.153c1.737,0,3.151-1.414,3.151-3.151v-3.618v-4.897v-3.54
		C64,39.732,62.586,38.319,60.849,38.319z M59.782,49.181l-1.825-3.442h4.588v3.442H59.782z"/>
	<path fill="#1A171B" d="M27.652,50.754c-2.617,0-4.765,1.951-5.122,4.47h-3.365c-0.943,0-1.71-0.768-1.71-1.711v-0.938h1.795
		c0.401,0,0.727-0.325,0.727-0.727c0-0.401-0.326-0.727-0.727-0.727h-1.788v-2.474h3.564c0.401,0,0.727-0.325,0.727-0.727
		c0-0.402-0.326-0.728-0.727-0.728h-3.57v-2.067h12.047h12.773c0.401,0,0.728-0.326,0.728-0.727v-1.336V23.182h4.605h5.188
		c0.752,0,1.423,0.505,1.631,1.229l1.339,4.654c0.092,0.318,0.383,0.525,0.699,0.525c0.066,0,0.134-0.009,0.2-0.028
		c0.387-0.11,0.609-0.514,0.499-0.899l-1.34-4.654c-0.387-1.343-1.632-2.28-3.028-2.28h-5.188h-4.605V19.58
		c0-0.402-0.326-0.727-0.728-0.727H29.501H16.727c-0.401,0-0.727,0.325-0.727,0.727v24.818v9.114c0,1.745,1.419,3.165,3.164,3.165
		h3.365c0.357,2.52,2.506,4.47,5.122,4.47c2.865,0,5.197-2.331,5.197-5.196C32.849,53.086,30.518,50.754,27.652,50.754z
		 M30.228,20.307h10.854l-6.706,13.027c-0.183,0.356-0.043,0.795,0.314,0.979c0.106,0.055,0.22,0.081,0.332,0.081
		c0.264,0,0.519-0.144,0.648-0.395l5.877-11.417v20.58v0.508H30.693l3.274-6.361c0.184-0.358,0.043-0.797-0.314-0.98
		c-0.357-0.184-0.796-0.041-0.979,0.314l-2.446,4.752V20.307z M17.454,20.307h11.319V43.67H17.919l9.353-18.173
		c0.184-0.356,0.044-0.796-0.314-0.979c-0.357-0.184-0.795-0.043-0.979,0.315l-8.525,16.562V20.307z M27.652,59.693
		c-2.063,0-3.742-1.68-3.742-3.742c0-2.064,1.678-3.742,3.742-3.742c2.063,0,3.742,1.678,3.742,3.742
		C31.395,58.014,29.716,59.693,27.652,59.693z"/>
	<path fill="#1A171B" d="M27.652,55.224c-0.401,0-0.727,0.325-0.727,0.727c0,0.401,0.326,0.727,0.727,0.727
		c0.402,0,0.728-0.325,0.728-0.727C28.38,55.549,28.054,55.224,27.652,55.224z"/>
	<path fill="#1A171B" d="M52.347,50.754c-2.617,0-4.767,1.951-5.124,4.47h-4.221v-6.946c0-0.402-0.326-0.728-0.728-0.728
		c-0.401,0-0.727,0.325-0.727,0.728v6.946h-5.546c-0.401,0-0.727,0.325-0.727,0.727c0,0.401,0.326,0.727,0.727,0.727h6.273h4.948
		c0.358,2.52,2.507,4.47,5.124,4.47c2.865,0,5.195-2.331,5.195-5.196C57.542,53.086,55.212,50.754,52.347,50.754z M52.347,59.693
		c-2.063,0-3.743-1.68-3.743-3.742c0-2.064,1.68-3.742,3.743-3.742c2.063,0,3.741,1.678,3.741,3.742
		C56.088,58.014,54.41,59.693,52.347,59.693z"/>
	<path fill="#1A171B" d="M52.346,55.224c-0.401,0-0.727,0.325-0.727,0.727c0,0.401,0.325,0.727,0.727,0.727
		c0.402,0,0.728-0.325,0.728-0.727C53.073,55.549,52.748,55.224,52.346,55.224z"/>
</g>
</svg>
